<svg xmlns="http://www.w3.org/2000/svg" xmlns:xlink="http://www.w3.org/1999/xlink" width="54" height="52" viewBox="0 0 54 52"><defs><path id="a" d="M.074.492h53.171V51.77H.074z"/></defs><g fill="none" fill-rule="evenodd"><mask id="b" fill="#fff"><use xlink:href="#a"/></mask><path fill="#000" d="M52.768.632a.978.978 0 0 0-.967-.023L35.499 9.237 19.196.609c-.015-.01-.028-.01-.038-.015-.048-.025-.096-.038-.145-.058-.03-.005-.057-.015-.082-.02a2.58 2.58 0 0 0-.168-.018c-.024 0-.048-.005-.072 0a.644.644 0 0 0-.16.023c-.028.005-.057.01-.086.02h-.024L.674 6.46A.984.984 0 0 0 0 7.397v42.398c0 .318.154.617.41.799a.963.963 0 0 0 .89.136l17.395-5.797 16.428 6.76c.015.01.03.004.043.01a.982.982 0 0 0 .333.066.956.956 0 0 0 .26-.039c.028-.01.053-.023.081-.033.039-.015.083-.024.121-.043l16.76-8.874a.993.993 0 0 0 .524-.872V1.48a.982.982 0 0 0-.477-.848zM1.975 8.105l15.771-5.258v26.616c-.422.076-.837.164-1.24.269a.988.988 0 0 0 .25 1.941.94.94 0 0 0 .255-.034c.235-.062.49-.092.735-.145V43.17L1.975 48.427V8.105zM19.72 31.221c.318-.03.621-.068.949-.073a.985.985 0 0 0 .963-1.006.984.984 0 0 0-.983-.969h-.024c-.304.005-.607.025-.905.045v-26.1l14.79 7.827v20.9a14.46 14.46 0 0 1-2.171-.26.986.986 0 0 0-.375 1.937c.877.168 1.723.255 2.547.283v15.503l-14.791-6.09V31.221zm31.556 10.09l-14.79 7.83V33.699a.97.97 0 0 0 .576-.962.99.99 0 0 0-.577-.814V10.945l14.79-7.828v38.195z" mask="url(#b)"/><path fill="#000" d="M10.848 8.379a4.937 4.937 0 0 0-4.93 4.93 4.937 4.937 0 0 0 3.942 4.834v2.071c0 .544.443.987.988.987a.99.99 0 0 0 .987-.987v-2.07a4.942 4.942 0 0 0 3.943-4.835 4.94 4.94 0 0 0-4.93-4.93zm0 7.892a2.967 2.967 0 0 1-2.962-2.962 2.965 2.965 0 0 1 2.962-2.956 2.96 2.96 0 0 1 0 5.918zM44.44 26.796a.991.991 0 0 0 1.28-.563c.463-1.18.834-2.519 1.107-3.968a.988.988 0 0 0-.788-1.151.997.997 0 0 0-1.152.79 19.889 19.889 0 0 1-1.005 3.611.993.993 0 0 0 .558 1.28zm-31.816 4.602a13.659 13.659 0 0 0-3.188 2.778.986.986 0 1 0 1.508 1.271 11.711 11.711 0 0 1 2.73-2.377.986.986 0 1 0-1.05-1.672zm-4.117 5.85a.99.99 0 0 0-1.309.482c-1.01 2.195-1.262 3.967-1.27 4.044a.978.978 0 0 0 .977 1.117c.48 0 .904-.357.977-.847 0-.015.226-1.575 1.107-3.486a.992.992 0 0 0-.482-1.31zm31.353-4.483c.15 0 .304-.033.448-.106a10.389 10.389 0 0 0 3.337-2.749.986.986 0 1 0-1.54-1.232 8.31 8.31 0 0 1-2.696 2.225.983.983 0 0 0 .452 1.862zm-11.097-2.263c-.434-.182-.689-.312-.708-.317a.73.73 0 0 0-.202-.077 32.224 32.224 0 0 0-3.125-.645.982.982 0 0 0-1.127.823.991.991 0 0 0 .828 1.127c.911.14 1.864.332 2.836.578.131.062.386.182.737.332a.973.973 0 0 0 .38.077.993.993 0 0 0 .911-.607.985.985 0 0 0-.53-1.29zm17.506-11.343c.02 0 .043.005.063.005a.99.99 0 0 0 .982-.925c.063-.947.091-1.95.091-2.98 0-.341 0-.688-.01-1.044-.01-.545-.481-.959-1-.969a.99.99 0 0 0-.97 1.007 45.934 45.934 0 0 1-.075 3.862.982.982 0 0 0 .919 1.044zM8.176 27.811a.988.988 0 0 0 1.396 0l1.276-1.27 1.275 1.27a.982.982 0 0 0 1.392 0 .983.983 0 0 0 0-1.391l-1.276-1.276 1.276-1.276a.983.983 0 1 0-1.392-1.391l-1.275 1.27-1.276-1.27a.987.987 0 0 0-1.396 0 .981.981 0 0 0 0 1.391l1.275 1.276-1.275 1.276a.981.981 0 0 0 0 1.391z"/></g></svg>