<svg xmlns="http://www.w3.org/2000/svg" xmlns:xlink="http://www.w3.org/1999/xlink" width="57" height="55" viewBox="0 0 57 55"><defs><path id="a" d="M.007.025h56.089V55H.006z"/></defs><g fill="none" fill-rule="evenodd"><mask id="b" fill="#fff"><use xlink:href="#a"/></mask><path fill="#0A090B" d="M47.107 29.93a.816.816 0 1 0-1.633 0 1.038 1.038 0 0 1-2.073 0 .816.816 0 1 0-1.633 0 2.672 2.672 0 0 0 2.67 2.67 2.672 2.672 0 0 0 2.669-2.67" mask="url(#b)"/><path fill="#0A090B" d="M2.292 28.608c-.084-.174.115-.48.242-.647.2-.265.385-.319.524-.319.03 0 .057.002.082.006.376.05.901.463 1.18 1.155.066.163.15.434.17.77-1.13-.234-2.007-.571-2.198-.965zm43.864-9.063c-.314 2.687-1.157 4.985-2.004 5.465-.963.545-3.185.65-4.854-.57-1.67-1.222-2.226-3.42-1.608-6.355a.985.985 0 0 1 .56-.682c4.088-1.871 6.444-2.483 7.32-2.483a.84.84 0 0 1 .295.04c.263.28.608 1.873.291 4.585zm7.797 9.702l-2.298-.736a.961.961 0 0 1-.62-.628 14.814 14.814 0 0 0-2.172-4.297 15.765 15.765 0 0 0-1.451-1.711c.339-1.487.523-3.17.5-4.625-.035-2.08-.45-3.3-1.271-3.73-.443-.231-1.788-.936-9.07 2.398a2.65 2.65 0 0 0-.483.287c-.49-.132-.993-.254-1.497-.363l-.185-.038c.59-1.29.935-2.69 1-4.135a.816.816 0 1 0-1.632-.073 9.485 9.485 0 0 1-2.776 6.297 9.451 9.451 0 0 1-3.439 2.196 23.674 23.674 0 0 0-6.57 0 9.45 9.45 0 0 1-3.44-2.196 9.448 9.448 0 0 1-2.785-6.725c0-2.54.99-4.928 2.785-6.724a9.447 9.447 0 0 1 6.725-2.786c2.54 0 4.928.99 6.724 2.786a9.506 9.506 0 0 1 1.773 2.448.816.816 0 1 0 1.459-.735 11.132 11.132 0 0 0-2.077-2.868A11.07 11.07 0 0 0 25.274.025a11.07 11.07 0 0 0-7.879 3.264 11.07 11.07 0 0 0-3.264 7.879 11.07 11.07 0 0 0 3.264 7.879c.607.607 1.268 1.13 1.966 1.566-.507.132-1.01.28-1.509.447a.816.816 0 0 0 .518 1.549 21.909 21.909 0 0 1 13.808 0 .815.815 0 1 0 .518-1.549 22.967 22.967 0 0 0-1.51-.447h.001a11.132 11.132 0 0 0 3.389-3.313 31.287 31.287 0 0 1 1.543.341c-.01.036-.019.071-.026.107-.398 1.89-.373 3.56.077 4.967.403 1.263 1.132 2.287 2.164 3.043 1.218.89 2.687 1.275 4.019 1.275 1.002 0 1.925-.218 2.604-.602.767-.435 1.41-1.35 1.919-2.726.235.275.458.556.668.844a13.182 13.182 0 0 1 1.934 3.824 2.596 2.596 0 0 0 1.68 1.693l2.297.736a1.446 1.446 0 0 1 1.008 1.381v3.81c0 .633-.405 1.188-1.008 1.381l-3.702 1.186a2.522 2.522 0 0 0-1.411 1.146C46.887 42.22 44.6 44.3 41.545 45.89a1.28 1.28 0 0 0-.671.902l-1.186 6.278a.367.367 0 0 1-.36.298h-3.855a.367.367 0 0 1-.36-.298l-.657-3.47a1.283 1.283 0 0 0-1.46-1.032c-1.66.251-3.37.379-5.085.379-1.275 0-2.534-.071-3.741-.212a1.293 1.293 0 0 0-1.415 1.038l-.624 3.297a.367.367 0 0 1-.36.298h-3.856a.368.368 0 0 1-.36-.3l-1.142-5.93a1.282 1.282 0 0 0-.659-.892c-5.209-2.78-7.962-7.427-7.962-13.435 0-3.036.664-5.72 1.974-7.979 1.222-2.108 3.007-3.85 5.306-5.18a.817.817 0 0 0-.818-1.413C9.798 20.816 7.11 24.793 6.37 29.845l-.235-.022a4.065 4.065 0 0 0-.3-1.629c-.473-1.177-1.446-2.027-2.478-2.165-.813-.109-1.587.237-2.125.947-.78 1.029-.652 1.843-.409 2.344.411.847 1.468 1.447 3.222 1.824a3.204 3.204 0 0 1-.16.217c-1.036 1.3-2.256 1.587-3.05 1.614A.857.857 0 0 0 0 33.83v.004c0 .458.361.832.82.853.058.002.119.004.183.004 1.003 0 2.613-.37 4.16-2.31.244-.306.443-.629.596-.963a22.106 22.106 0 0 0 .444.045 21.45 21.45 0 0 0-.044 1.348c0 3.4.81 6.43 2.41 9.01 1.473 2.377 3.582 4.324 6.272 5.788l1.11 5.764A2.001 2.001 0 0 0 17.915 55h3.856a2 2 0 0 0 1.964-1.628l.564-2.98a35.865 35.865 0 0 0 8.614-.162l.595 3.142A2.001 2.001 0 0 0 35.472 55h3.856a2 2 0 0 0 1.964-1.628l1.155-6.113c3.261-1.724 5.72-3.99 7.308-6.735a.892.892 0 0 1 .496-.409l3.702-1.186a3.074 3.074 0 0 0 2.143-2.936v-3.81a3.073 3.073 0 0 0-2.143-2.936z" mask="url(#b)"/><path fill="#0A090B" d="M25.98 11.83v3.036c.777-.144 1.267-.604 1.267-1.424 0-.907-.562-1.31-1.267-1.612zm-.676-1.871v-2.62c-.806.101-1.382.461-1.382 1.21 0 .82.62 1.122 1.382 1.41zm-.086 6.332c-1.785-.029-2.994-.993-2.994-1.698 0-.345.302-.82.662-.82.475 0 .863 1.007 2.332 1.122v-3.382c-1.296-.46-2.735-.978-2.735-2.82 0-1.814 1.367-2.534 2.735-2.678v-.417c0-.173.172-.33.417-.33.216 0 .432.157.432.33v.389c.978.029 2.36.33 2.36 1.036 0 .273-.201.82-.633.82-.346 0-.72-.46-1.727-.532v2.921c1.252.46 2.619 1.094 2.619 3.051 0 1.77-1.065 2.75-2.62 2.965v.49c0 .172-.215.33-.431.33-.245 0-.418-.158-.418-.33v-.447z"/></g></svg>