<svg xmlns="http://www.w3.org/2000/svg" xmlns:xlink="http://www.w3.org/1999/xlink" width="48" height="60" viewBox="0 0 48 60"><defs><path id="a" d="M0 0h47.772v59.15H0z"/></defs><g fill="none" fill-rule="evenodd"><mask id="b" fill="#fff"><use xlink:href="#a"/></mask><path fill="#0A090B" d="M41.49 45.435c-2.597-3.458-2.015-9.27-1.965-9.719l.002-.019c.855-5.66.45-10.543-1.201-14.513a.861.861 0 1 0-1.591.662c1.53 3.678 1.896 8.256 1.086 13.607l-.003.022c-.008.067-.059.494-.09 1.16l-.922.24c.157-1.586.323-4.46-.053-7.668-.753-6.427-3.359-11.051-7.536-13.372a17.788 17.788 0 0 0-5.623-1.995.862.862 0 0 0-.293 1.697c1.763.304 3.473.911 5.08 1.804 3.716 2.065 5.955 6.112 6.657 12.028.419 3.538.131 6.727-.017 7.97l-.803.209-.025-.207-.003-.037a50.073 50.073 0 0 1-.144-1.497l-.033-.42-.018-.267a50.225 50.225 0 0 1-.068-1.198l-.01-.24a60.59 60.59 0 0 1-.018-.505l-.007-.23a55.274 55.274 0 0 1-.011-.537l-.004-.201a56.205 56.205 0 0 1-.005-.74c0-4.862-1.431-8.549-4.254-10.956a11.868 11.868 0 0 0-3.28-1.96.276.276 0 0 0-.047-.02l-.15-.059-.08-.03a13.453 13.453 0 0 0-.38-.137l-.079-.027a13.745 13.745 0 0 0-.401-.128l-.056-.017-.088-.025a4.287 4.287 0 0 0-.14-.04l-.07-.02-.158-.043-.032-.008a14.344 14.344 0 0 0-.363-.09 15.84 15.84 0 0 0-.498-.11h-.003a8.534 8.534 0 0 0-.22-.043c-2.709-.508-5-.23-5.459-.164h-.043l-.042.001h-.004a8.654 8.654 0 0 0-.426.019h-.003l-.122.008h-.006a10.65 10.65 0 0 0-.13.012h-.008a8.708 8.708 0 0 0-.297.031l-.011.001c-.05.006-.102.012-.155.02l-.014.001a13.064 13.064 0 0 0-.347.05l-.017.002-.178.03-.017.003-.185.033c-.006 0-.012.002-.017.003a13.63 13.63 0 0 0-.193.038l-.018.003a13.097 13.097 0 0 0-.424.094c-.005 0-.01.002-.016.004-.071.016-.143.034-.216.052l-.014.004a13.828 13.828 0 0 0-.716.202l-.004.001c-.167.052-.337.108-.51.169l-.492-1.575a17.931 17.931 0 0 1 6.292-1.475.862.862 0 0 0-.08-1.721 19.56 19.56 0 0 0-6.73 1.539l-.673-2.156c1.898-.661 4.452-1.196 7.672-1.128l.14.003a26.962 26.962 0 0 1 .606.024l.223.011a25.7 25.7 0 0 1 1.658.146c2.536.306 4.84.977 6.862 2 2.02 1.023 3.716 2.381 5.06 4.05.31.384.601.785.874 1.203a.86.86 0 1 0 1.443-.94 16.426 16.426 0 0 0-2.072-2.575 17.264 17.264 0 0 0-4.527-3.274c-2.513-1.273-5.409-2.043-8.608-2.29a30.56 30.56 0 0 0-.756-.05l-.285-.01a34.443 34.443 0 0 0-.454-.019c-.127-.003-.25-.004-.376-.005-.115-.002-.23-.005-.345-.005-.16 0-.317.003-.474.005-.077.002-.154.001-.23.003-.22.006-.438.014-.653.025h-.032c-6.163.31-9.844 2.69-11.42 3.997L2.09 5.258a94.987 94.987 0 0 1 8.217-2.095l2.543 3.62a.86.86 0 0 0 1.544-.3l.975-4.205a63.302 63.302 0 0 1 2.469-.297L17.07 5.44a.861.861 0 1 0 1.682.373l.883-3.982a44.582 44.582 0 0 1 2.984-.107c.904 0 1.856.074 2.84.22l.602 4.129a.861.861 0 0 0 1.513.427l2.751-3.297c3.474 1.27 6.62 3.218 9.128 5.655 1.515 1.472 2.744 3.07 3.686 4.78l-3.055 1.906a.861.861 0 1 0 .912 1.461l2.91-1.815a17.961 17.961 0 0 1 1.054 3.253l-4.004 2.37a.862.862 0 0 0 .18 1.563l4.226 1.334a21.184 21.184 0 0 1-.15 1.546c-.451 3.364-.674 6.312-.745 8.874l-2.316-.402a.861.861 0 1 0-.295 1.697l2.585.449c-.007 5.332.663 8.752 1.16 10.556l-4.111-.994zm-4.085 8.1c-10.611-1.786-18.033-.73-22.475.524-2.523.712-4.383 1.557-5.641 2.247l3.733-12.843 7.372-2.47a.86.86 0 0 0 .497-1.203 9.878 9.878 0 0 0-1.914-2.5c-1.707-1.604-3.707-2.223-5.785-1.79-4.725.984-6.213 8.285-6.852 11.514l-.73.341c-.271-3.48-.345-8.81.02-13.41.024-.307.054-.609.087-.907.715-.417 2.558-1.404 5.24-2.224 3.2-.98 8.287-1.915 14.348-.81a.861.861 0 1 0 .309-1.694 32.235 32.235 0 0 0-15.216.873 28.966 28.966 0 0 0-4.355 1.725c.553-2.79 1.545-5.106 2.967-6.931l.027-.035a12.646 12.646 0 0 1 .428-.515l.092-.103.164-.18.118-.124c.05-.051.099-.104.15-.154.087-.088.176-.175.266-.26l.107-.098c.063-.058.125-.115.19-.171.038-.035.078-.068.117-.102a12.378 12.378 0 0 1 .504-.41l.122-.092.208-.152c.04-.027.078-.056.117-.083a11.93 11.93 0 0 1 .652-.424 12.444 12.444 0 0 1 .829-.458l.007-.004.214-.104.057-.027c.06-.029.12-.056.18-.083l.088-.04.159-.068.106-.045.143-.058.119-.047.13-.05.127-.047.12-.042.133-.046.113-.038c.045-.014.09-.03.135-.043l.107-.034.135-.04.102-.03a13.497 13.497 0 0 1 .587-.153l.09-.02c.042-.01.084-.02.125-.028l.087-.019a12.578 12.578 0 0 1 .4-.076l.11-.02.076-.012a9.09 9.09 0 0 1 .105-.016l.073-.01c.034-.006.066-.01.098-.014l.07-.01.09-.011.067-.008.085-.01a23.136 23.136 0 0 1 .196-.018l.07-.006.053-.004.06-.005c.017 0 .035-.002.05-.003l.054-.003.043-.002a14.684 14.684 0 0 1 .124-.005l.026-.001h.02l.014-.001h.104l.022-.001c.045 0 .09-.003.134-.01.06-.01 5.792-.864 9.814 2.215l.037.029.154.12.079.066c.037.03.074.061.11.093l.013.01c.123.106.241.214.358.325l.043.041c.112.109.222.22.328.335l.001.002.053.057c.104.113.205.23.303.348l.033.04.018.023c.099.121.195.246.288.373l.034.048a9.336 9.336 0 0 1 .544.847l.032.056c.079.14.155.284.228.43l.007.014.03.06c.072.146.14.294.206.445l.027.062.005.013c.066.155.13.313.19.473l.019.052c.06.165.119.332.173.502l.008.022c.054.171.105.347.153.524l.02.073a13.76 13.76 0 0 1 .136.559l.012.056c.038.176.074.355.107.536l.015.089c.033.188.063.377.09.57l.006.053c.026.195.049.392.069.592l.004.041c.02.201.035.406.049.612v.02c.002.012.002.024.003.037a36.328 36.328 0 0 0-3.295-1.112.862.862 0 0 0-.47 1.657c1.27.36 2.549.807 3.809 1.33l.003.277.005.274a56.43 56.43 0 0 0 .045 1.394l.017.369.023.386c.02.336.042.67.068 1.002l.004.062c.078.993.18 1.974.312 2.938a.97.97 0 0 0 .017.091c.617 4.453 1.703 7.938 2.667 10.357a32.685 32.685 0 0 0 2.092 4.343zm10.292-6.256c-.028-.064-2.82-6.58-.777-21.794.106-.786.17-1.585.193-2.374a.861.861 0 0 0-.601-.846l-3.018-.953 2.872-1.7a.861.861 0 0 0 .408-.9 19.666 19.666 0 0 0-1.69-5.05.858.858 0 0 0-.083-.172l-.01-.016c-1.07-2.12-2.53-4.096-4.338-5.853-2.822-2.743-6.393-4.903-10.327-6.246a.862.862 0 0 0-.94.263l-1.9 2.276-.414-2.843a.862.862 0 0 0-.702-.724A21.616 21.616 0 0 0 22.619 0a47.466 47.466 0 0 0-3.775.16 64.07 64.07 0 0 0-4.31.497.861.861 0 0 0-.712.658l-.672 2.9-1.759-2.504a.86.86 0 0 0-.874-.35C4.94 2.482.631 3.912.589 3.926a.862.862 0 0 0-.496 1.207l5.492 10.824a.862.862 0 0 0 1.415.18c.01-.012 1.134-1.26 3.468-2.394l.227-.108.928 2.97.764 2.442c-.292.145-.588.305-.884.48l-.143.088-.099.06a14.03 14.03 0 0 0-.39.25l-.052.035c-.146.099-.29.2-.432.304l-.049.037c-.121.09-.241.182-.36.276l-.084.067c-.116.094-.23.19-.343.287l-.042.035a14.248 14.248 0 0 0-2.855 3.423c-1.183 1.963-2.002 4.315-2.448 7.008a28.131 28.131 0 0 0-.142.96c-.061.474-.112.958-.152 1.453-.418 5.277-.27 11.509.094 14.937a.86.86 0 0 0 1.221.69l2.239-1.047a.862.862 0 0 0 .48-.611l.066-.334c.513-2.597 1.876-9.496 5.532-10.258 1.51-.315 2.93.132 4.218 1.326a8.12 8.12 0 0 1 1.048 1.194l-6.763 2.267a.861.861 0 0 0-.554.576l-4.505 15.5a.86.86 0 0 0 1.388.895c.023-.02 2.279-1.91 7.154-3.264 8.183-2.271 17.308-1.305 23.523-.094a.861.861 0 0 0 .842-1.378c-.049-.062-3.95-5.133-5.446-14.94l.348-.09 1.217-.317 1.705-.443c.084 2.433.602 5.87 2.61 8.329a.86.86 0 0 0 .465.292l5.915 1.43a.854.854 0 0 0 .863-.287.864.864 0 0 0 .125-.903z" mask="url(#b)"/></g></svg>