<svg xmlns="http://www.w3.org/2000/svg" width="56" height="60" viewBox="0 0 56 60"><g fill="#0A090B" fill-rule="evenodd"><path d="M27.954 6.325a.855.855 0 0 0 .855-.856V.972a.855.855 0 1 0-1.71 0V5.47c0 .472.382.855.855.855m27.098 20.89h-4.497a.855.855 0 1 0 0 1.711h4.497a.855.855 0 1 0 0-1.71m-49.699-.001H.855a.855.855 0 1 0 0 1.711h4.498a.855.855 0 1 0 0-1.71M44.54 43.447a.855.855 0 0 0-1.21 1.21l3.18 3.18a.853.853 0 0 0 1.21 0 .855.855 0 0 0 0-1.21l-3.18-3.18M11.368 12.694a.853.853 0 0 0 1.21 0 .855.855 0 0 0 0-1.21l-3.18-3.18a.855.855 0 1 0-1.21 1.21l3.18 3.18m35.142-4.39l-3.18 3.18a.855.855 0 0 0 1.21 1.21l3.18-3.18a.855.855 0 0 0-1.21-1.21M11.368 43.447l-3.18 3.18a.855.855 0 1 0 1.21 1.21l3.18-3.18a.855.855 0 1 0-1.21-1.21m21.721 7.613h-3.463a.855.855 0 1 0 0 1.71h3.463v2.078h-10.27v-2.077h1.447a.855.855 0 1 0 0-1.711H22.82v-1.284h10.27v1.284zm-2.005 7.23h-6.26a2.006 2.006 0 0 1-1.984-1.731h10.228a2.006 2.006 0 0 1-1.984 1.73zm12.587-34.763a.854.854 0 1 0-1.68.325c.173.892.26 1.81.26 2.727 0 3.14-.999 6.121-2.89 8.619-2.88 3.804-4.542 8.248-4.817 12.868h-13.18c-.08-1.38-.28-2.752-.596-4.084a22.707 22.707 0 0 0-1.948-5.26 22.142 22.142 0 0 0-2.163-3.38 14.152 14.152 0 0 1-3-8.835c.018-3.716 1.52-7.258 4.23-9.974 2.71-2.715 6.248-4.226 9.964-4.252 5.027-.032 9.61 2.496 12.262 6.772a.855.855 0 1 0 1.453-.902 16.11 16.11 0 0 0-5.755-5.523 16.01 16.01 0 0 0-7.973-2.057c-4.168.03-8.133 1.718-11.162 4.754-3.03 3.036-4.71 7.005-4.73 11.173a15.847 15.847 0 0 0 3.36 9.894c.754.97 1.425 2.019 1.996 3.118a20.995 20.995 0 0 1 1.802 4.866c.31 1.312.5 2.666.564 4.025.036.77.669 1.374 1.44 1.375v6.509A3.72 3.72 0 0 0 24.823 60h6.261a3.72 3.72 0 0 0 3.716-3.715v-6.509a1.443 1.443 0 0 0 1.44-1.374c.21-4.365 1.762-8.574 4.486-12.172a15.865 15.865 0 0 0 3.236-9.651c0-1.026-.098-2.053-.29-3.052z"/><path d="M27.693 23.541c-1.54.193-2.353.914-2.353 2.086 0 1.414 1.054 1.926 2.326 2.407l.159.06v-4.57l-.132.017zm1 12.518l.138-.025c1.392-.258 2.158-1.123 2.158-2.436 0-1.599-1.025-2.259-2.133-2.734l-.163-.07v5.265zm-.446 3.33c-.348 0-.563-.22-.563-.423v-.842l-.115-.001c-2.907-.047-4.761-1.6-4.761-2.65 0-.532.466-1.22.961-1.22.246 0 .505.22.832.5.6.51 1.422 1.209 2.957 1.33l.126.009v-5.718l-.078-.028c-2.051-.73-4.376-1.556-4.376-4.485 0-3.417 3.041-4.106 4.35-4.244l.104-.011v-.785c0-.203.215-.423.563-.423.29 0 .586.213.586.423v.746l.114.004c.886.025 1.815.184 2.484.424.569.203 1.247.567 1.247 1.147 0 .425-.314 1.219-.914 1.219-.19 0-.407-.108-.68-.245-.463-.232-1.097-.549-2.125-.622l-.126-.01v4.967l.077.028c2.12.78 4.19 1.798 4.19 4.86 0 2.629-1.518 4.347-4.166 4.714l-.1.014v.9c0 .208-.297.421-.587.421z"/></g></svg>