<svg xmlns="http://www.w3.org/2000/svg" xmlns:xlink="http://www.w3.org/1999/xlink" width="45" height="50" viewBox="0 0 45 50"><defs><path id="a" d="M.009.09h44.406V50H.009z"/></defs><g fill="none" fill-rule="evenodd"><path fill="#000" d="M12.462 28.978c.46 0 .892.18 1.217.504a.938.938 0 0 0 1.33 0 .941.941 0 0 0 0-1.33 3.579 3.579 0 0 0-2.546-1.056c-.963 0-1.867.375-2.548 1.055a.941.941 0 1 0 1.331 1.331 1.71 1.71 0 0 1 1.216-.504zm16.943-.827a.941.941 0 1 0 1.33 1.331 1.725 1.725 0 0 1 2.434 0 .938.938 0 0 0 1.33 0 .941.941 0 0 0 0-1.33 3.607 3.607 0 0 0-5.094 0z"/><mask id="b" fill="#fff"><use xlink:href="#a"/></mask><path fill="#000" d="M31.947 37.436c-5.37 5.37-14.109 5.37-19.48 0a.94.94 0 1 0-1.33 1.331 15.607 15.607 0 0 0 11.07 4.578c4.01 0 8.019-1.525 11.071-4.578a.941.941 0 1 0-1.33-1.331z" mask="url(#b)"/><path fill="#000" d="M44.415 29.993a5.227 5.227 0 0 0-4.279-5.133V9.115a6.065 6.065 0 0 0-2.718-5.066 6.063 6.063 0 0 0-5.378-.669l-5.908-2.006c-4.54-1.54-9.32-1.699-13.822-.457-5.893 1.626-9.272 5.064-9.793 9.952a7.144 7.144 0 0 0-1.077 2.03l-.46 1.357a1.609 1.609 0 0 0 .675 1.904 1.61 1.61 0 0 0 2.01-.207c.189-.182.395-.336.613-.465v9.372A5.227 5.227 0 0 0 0 29.993c0 2.658 2 4.858 4.573 5.178a18.074 18.074 0 0 0 4.942 9.496C12.905 48.106 17.413 50 22.207 50h.002a17.81 17.81 0 0 0 12.676-5.251 17.797 17.797 0 0 0 4.986-9.582 5.227 5.227 0 0 0 4.544-5.174zM36.377 5.618a4.131 4.131 0 0 1 1.877 3.497V21.43a6.116 6.116 0 0 1-5.165-6.033L33.012 5.05a4.122 4.122 0 0 1 3.365.568zM3.04 14.043l.183-.541a5.28 5.28 0 0 1 2.92-3.16 5.279 5.279 0 0 1 4.3.068c2.85 1.328 6.295.61 8.379-1.745l.232-.263a.94.94 0 1 0-1.41-1.248l-.233.264a5.303 5.303 0 0 1-6.174 1.286 7.162 7.162 0 0 0-5.836-.091c-.17.072-.335.153-.498.238 1.094-2.916 3.742-4.97 7.908-6.12 4.136-1.14 8.533-.993 12.716.426l5.602 1.902.074 4.863a16.542 16.542 0 0 1-10.28 6.477A16.544 16.544 0 0 1 8.729 13.99a5.1 5.1 0 0 0-5.688.053zm-1.157 15.95a3.342 3.342 0 0 1 2.396-3.202v5.102c0 .44.015.88.046 1.315a3.343 3.343 0 0 1-2.442-3.215zm31.671 13.425a15.94 15.94 0 0 1-11.345 4.7h-.002c-4.286 0-8.318-1.696-11.352-4.773A16.219 16.219 0 0 1 6.16 31.893V15.044c.533.04 1.062.213 1.538.523a18.425 18.425 0 0 0 13.576 2.682 18.406 18.406 0 0 0 9.932-5.405v2.554c0 4.086 3.084 7.463 7.047 7.93v8.743c0 4.286-1.67 8.316-4.7 11.347zM40.1 33.204c.023-.376.036-.753.036-1.133v-5.28a3.342 3.342 0 0 1 2.396 3.202 3.342 3.342 0 0 1-2.432 3.211z" mask="url(#b)"/></g></svg>