<svg xmlns="http://www.w3.org/2000/svg" xmlns:xlink="http://www.w3.org/1999/xlink" width="62" height="52" viewBox="0 0 62 52"><defs><path id="a" d="M.007.006h61.48v51.987H.007z"/></defs><g fill="none" fill-rule="evenodd"><mask id="b" fill="#fff"><use xlink:href="#a"/></mask><path fill="#0A090B" d="M49.274 31.555v1.344h-7.358v-3.464h7.358v2.12zm-2.044 5.35c0 .902-.733 1.636-1.635 1.636a1.637 1.637 0 0 1-1.635-1.635V34.65h3.27v2.255zm-3.27-9.222h3.27v-3.89h-3.27v3.89zm-24.39 3.872v1.344h-7.357v-3.464h7.358v2.12zm-2.043 5.35c0 .902-.733 1.636-1.635 1.636a1.637 1.637 0 0 1-1.635-1.635V34.65h3.27v2.255zm-3.27-9.222h3.27v-3.89h-3.27v3.89zM19.629 5.81c0-1.7 1.383-3.082 3.082-3.082h.69v1.518h-.69c-.862 0-1.563.702-1.563 1.564v3.892h-1.519V5.81zm3.872.188c.214.564.759.966 1.397.966H36.59c.638 0 1.182-.402 1.397-.966h.6v3.704H22.9V5.999h.602zm1.653-.786h11.18V1.758h-11.18v3.455zm12.932-2.484h.69c1.7 0 3.082 1.383 3.082 3.082v3.892H40.34V5.81c0-.862-.702-1.564-1.564-1.564h-.69V2.73zm20.29 6.974h-4.949a.876.876 0 1 0 0 1.751h4.948c.75 0 1.36.61 1.36 1.36v11.131a6.741 6.741 0 0 1-6.733 6.734h-1.976v-1.444a1.555 1.555 0 0 0-1.553-1.552h-.49V23.41c0-.755-.615-1.37-1.371-1.37h-4.033c-.756 0-1.37.615-1.37 1.37v4.272h-.492a1.555 1.555 0 0 0-1.553 1.553v1.443h-18.84v-1.444a1.555 1.555 0 0 0-1.553-1.552h-.491V23.41c0-.755-.615-1.37-1.37-1.37h-4.034c-.755 0-1.37.615-1.37 1.37v4.272h-.49a1.555 1.555 0 0 0-1.553 1.553v1.443H8.486a6.741 6.741 0 0 1-6.734-6.734v-11.13c0-.75.61-1.36 1.36-1.36h44.76a.876.876 0 1 0 0-1.752H43.61V5.81A4.84 4.84 0 0 0 38.776.977h-.787a1.497 1.497 0 0 0-1.4-.97h-11.69c-.64 0-1.186.404-1.4.97h-.787a4.84 4.84 0 0 0-4.833 4.834v3.892H3.112A3.115 3.115 0 0 0 0 12.815V37.46a.876.876 0 0 0 1.752 0V29.1a8.475 8.475 0 0 0 6.734 3.33h1.975v.669c0 .856.697 1.552 1.553 1.552h.491v2.255a3.39 3.39 0 0 0 3.387 3.387 3.39 3.39 0 0 0 3.387-3.387V34.65h.491c.856 0 1.553-.696 1.553-1.552v-.668h18.842v.668c0 .856.696 1.552 1.552 1.552h.491v2.255a3.39 3.39 0 0 0 3.387 3.387 3.39 3.39 0 0 0 3.387-3.387V34.65h.491c.856 0 1.553-.696 1.553-1.552v-.668h1.976a8.475 8.475 0 0 0 6.733-3.33v19.787c0 .75-.61 1.36-1.36 1.36H3.112c-.75 0-1.36-.61-1.36-1.36v-5.874a.876.876 0 0 0-1.752 0v5.874A3.115 3.115 0 0 0 3.112 52h55.263a3.115 3.115 0 0 0 3.112-3.112V12.815a3.115 3.115 0 0 0-3.112-3.112z" mask="url(#b)"/></g></svg>