<svg xmlns="http://www.w3.org/2000/svg" width="12" height="10" viewBox="0 0 12 10"><path fill-rule="evenodd" d="M10.778 2.847c0-.11-.005-.217-.01-.327.485-.346.9-.784 1.232-1.284a4.8 4.8 0 0 1-1.414.375 2.45 2.45 0 0 0 1.082-1.37 4.78 4.78 0 0 1-1.562.581A2.473 2.473 0 0 0 8.31 0C6.95-.018 5.847 1.097 5.847 2.496c0 .197.02.39.064.576C3.863 2.942 2.049 1.91.837.347A2.585 2.585 0 0 0 .5 1.626c0 .889.436 1.678 1.098 2.14A2.412 2.412 0 0 1 .48 3.432v.034c0 1.24.85 2.273 1.979 2.52a2.464 2.464 0 0 1-.648.086 2.448 2.448 0 0 1-.465-.053c.311 1.019 1.222 1.76 2.3 1.783A4.833 4.833 0 0 1 0 8.847 6.742 6.742 0 0 0 3.775 10c4.525 0 7.003-3.831 7.003-7.153z"/></svg>