<svg xmlns="http://www.w3.org/2000/svg" width="12" height="13" viewBox="0 0 12 13">
    <path fill="#000" fill-rule="evenodd" d="M1.703 8.097l5.09-5.09c.848-.847 1.91-.918 2.652-.175.74.738.668 1.804-.175 2.648l-4.582 4.582a.405.405 0 0 1-.563 0 .4.4 0 0 1 0-.566l4.578-4.582c.41-.411.672-1.024.176-1.52-.492-.492-1.109-.23-1.52.18L2.27 8.664C.81 10.125.445 10.8 1.312 11.671c.883.879 1.817.661 3.22-.742l5.656-5.66c.914-.914 1.554-2.406.351-3.605-1.426-1.426-3.05-.024-3.516.441L1.824 7.304a.399.399 0 0 1-.562-.566l5.195-5.199C8.027-.032 9.81-.2 11.105 1.097c1.313 1.309 1.168 3.215-.35 4.738l-5.657 5.657C4.613 11.972 3.586 13 2.402 13c-.53 0-1.097-.207-1.656-.766-1.59-1.59-.117-3.063.957-4.137z"/>
</svg>
