<svg xmlns="http://www.w3.org/2000/svg" width="48" height="41" viewBox="0 0 48 41">
    <g fill="#000" fill-rule="evenodd" opacity=".5">
        <path d="M40.781 13.157C40.359 5.954 34.422.2 27.266.2c-4.344 0-8.547 2.129-11.157 5.605-.058-.031-.121-.05-.179-.082-.16-.074-.321-.148-.485-.214-.093-.036-.183-.067-.277-.102a10.018 10.018 0 0 0-.492-.152c-.094-.024-.184-.051-.281-.071a4.763 4.763 0 0 0-.547-.097 2.088 2.088 0 0 0-.243-.039 7.613 7.613 0 0 0-.804-.047c-3.969 0-7.199 3.23-7.199 7.199 0 .102.003.203.011.305C2.285 14.317 0 18.118 0 21.923 0 27.591 4.609 32.2 10.277 32.2h4.121a.801.801 0 0 0 0-1.602h-4.121c-4.785 0-8.675-3.89-8.675-8.675 0-3.325 2.164-6.774 5.144-8.203l.453-.215v-.504c0-.098.008-.199.012-.301l.008-.141-.008-.148c-.004-.07-.012-.141-.012-.211a5.61 5.61 0 0 1 5.602-5.602c.246 0 .492.024.734.055.063.008.121.02.184.027.215.04.426.083.633.145.027.008.054.012.082.02a5.838 5.838 0 0 1 1.402.656 5.6 5.6 0 0 1 2.562 4.699.802.802 0 0 0 1.602 0 7.18 7.18 0 0 0-2.559-5.496c2.293-3 6.071-4.902 9.825-4.902 6.195 0 11.343 4.906 11.879 11.109-.817-.059-2.043-.09-3.266.098A.802.802 0 0 0 36 14.602a.745.745 0 0 0 .121-.011c1.777-.27 3.633-.016 3.746 0 3.727.707 6.531 4.136 6.531 7.988 0 4.422-3.597 8.019-8.019 8.019h-3.18a.802.802 0 0 0 0 1.602h3.18c5.305 0 9.621-4.316 9.621-9.621 0-4.391-3.062-8.332-7.219-9.422z"/>
        <path d="M25.367 21.235a.78.78 0 0 0-.262-.172.785.785 0 0 0-.609 0 .76.76 0 0 0-.262.172l-6.398 6.399a.8.8 0 0 0 1.129 1.132L24 23.731V40.2a.802.802 0 0 0 1.602 0V23.731l5.031 5.035a.798.798 0 0 0 1.133 0 .802.802 0 0 0 0-1.132l-6.399-6.399z"/>
    </g>
</svg>
