<svg xmlns="http://www.w3.org/2000/svg" xmlns:xlink="http://www.w3.org/1999/xlink" width="35" height="60" viewBox="0 0 35 60">
    <defs>
        <path id="a" d="M.007 0h34.86v60H.007z"/>
    </defs>
    <g fill="none" fill-rule="evenodd">
        <g>
            <mask id="b" fill="#fff">
                <use xlink:href="#a"/>
            </mask>
            <path fill="#0A090B" d="M23.607 19.71c-3.404 3.404-8.943 3.404-12.347 0s-3.404-8.943 0-12.347a8.703 8.703 0 0 1 6.173-2.553c2.236 0 4.472.851 6.173 2.553 3.405 3.404 3.405 8.943 0 12.347zM10.052 6.155c-4.07 4.07-4.07 10.693 0 14.763a10.407 10.407 0 0 0 7.381 3.053c2.674 0 5.347-1.018 7.382-3.053 4.07-4.07 4.07-10.693 0-14.763s-10.693-4.07-14.763 0z" mask="url(#b)"/>
            <path fill="#0A090B" d="M31.63 44.486H3.236v-2.383H31.63v2.383zm-19.975-8.837c-1.595.277-3.036.105-4.3-.505l2.686-.967 1.71 1.444-.096.028zM4.24 32.241l2.46-.886 1.833 1.549-2.893 1.041a9.512 9.512 0 0 1-1.4-1.704zm8.625 1.975l-.012.1-1.71-1.444.504-2.81c.814 1.144 1.223 2.536 1.218 4.154zm9.093-.038c0-1.63.421-3.03 1.251-4.175l.514 2.869-1.746 1.474-.019-.168zm7.23-.247l-2.855-1.027 1.834-1.549 2.427.874a9.531 9.531 0 0 1-1.407 1.702zm-6.025 1.684l-.03-.009 1.692-1.429 2.639.95c-1.267.605-2.708.77-4.301.488zm5.41-6.839l-.341-1.902a19.176 19.176 0 0 1 3.314-.609l-2.974 2.511zm2.875 1.944l-1.773-.638 2.944-2.486a19.134 19.134 0 0 1-1.171 3.124zm-4.85-3.27l.467 2.6-1.834 1.548-.55-3.066a9.541 9.541 0 0 1 1.918-1.083zM6.295 28.775L3.326 26.27a19.14 19.14 0 0 1 3.305.623l-.337 1.883zm3.884-.205l-.542 3.027-1.834-1.548.46-2.574a9.514 9.514 0 0 1 1.916 1.095zm-7.954-.996l2.968 2.507-1.8.648a19.137 19.137 0 0 1-1.168-3.155zm29.706 12.82H18.288v-.697l3.318-2.802c.294.127.593.217.856.294.084.024.166.048.245.073.033.01.067.018.1.025.632.115 1.247.173 1.842.173 1.756 0 3.348-.501 4.75-1.498.116-.081.228-.166.338-.253a.85.85 0 0 0 .396-.33c.966-.852 1.743-1.894 2.368-2.986a.85.85 0 0 0 .23-.418c1.347-2.536 1.905-5.24 2.097-6.422a.853.853 0 0 0-.909-1.103c-1.892-.028-7.807.171-11.214 3.525-1.642 1.617-2.468 3.723-2.456 6.26 0 .034.003.068.007.103l.03.254c.034.314.074.677.174 1.035l-2.172 1.834v-10.42a13.563 13.563 0 0 0 7.694-3.01 13.582 13.582 0 0 0 4.678-7.605.854.854 0 1 0-1.67-.363 11.868 11.868 0 0 1-4.088 6.644 11.85 11.85 0 0 1-7.468 2.656c-6.522 0-11.828-5.306-11.828-11.827 0-6.522 5.306-11.828 11.828-11.828 2.715 0 5.368.943 7.468 2.656a11.868 11.868 0 0 1 4.089 6.644.854.854 0 1 0 1.67-.363 13.583 13.583 0 0 0-4.679-7.606A13.566 13.566 0 0 0 17.433 0C9.97 0 3.897 6.073 3.897 13.537c0 7.177 5.615 13.066 12.682 13.508v10.417l-2.203-1.86a6.82 6.82 0 0 0 .16-.965l.03-.254a.86.86 0 0 0 .007-.103c.022-2.537-.796-4.646-2.432-6.268a8.761 8.761 0 0 0-.528-.48c-1.091-.92-2.379-1.57-3.689-2.026a.846.846 0 0 0-.09-.03c-2.88-.985-5.841-1.05-6.995-1.03l-.023.001a.905.905 0 0 0-.227.041l-.029.01a.838.838 0 0 0-.056.023l-.024.01-.059.032-.017.01a.842.842 0 0 0-.06.041l-.013.01a.873.873 0 0 0-.058.05l-.01.009a.874.874 0 0 0-.117.138l-.009.014a.833.833 0 0 0-.037.062l-.009.018a.824.824 0 0 0-.029.063l-.008.02a.844.844 0 0 0-.02.062l-.007.026a.904.904 0 0 0-.013.059l-.005.03a.779.779 0 0 0-.002.23c0 .008 0 .016.002.024.175 1.144.738 4.07 2.203 6.754l.018.034c.671 1.222 1.531 2.39 2.627 3.317a8.737 8.737 0 0 0 .56.44c1.409 1.008 3.01 1.515 4.78 1.515.584 0 1.187-.056 1.807-.167a.858.858 0 0 0 .1-.024l.246-.072c.284-.082.608-.177.924-.32l3.305 2.792v.696H2.936a1.41 1.41 0 0 0-1.409 1.409v2.983a1.41 1.41 0 0 0 1.41 1.408H5.3l.864 3.97a.854.854 0 1 0 1.67-.364l-.786-3.606h20.77l-2.634 12.097H9.682l-.672-3.087a.854.854 0 1 0-1.67.363l.7 3.213c.154.707.79 1.22 1.514 1.22h15.758c.724 0 1.36-.513 1.515-1.22l2.74-12.586h2.363a1.41 1.41 0 0 0 1.41-1.408v-2.983a1.41 1.41 0 0 0-1.41-1.409z" mask="url(#b)"/>
        </g>
        <path fill="#0A090B" d="M17.873 14.572v3.417c.874-.162 1.425-.68 1.425-1.603 0-1.02-.632-1.474-1.425-1.814zm-.762-2.105V9.519c-.907.114-1.554.519-1.554 1.36 0 .924.696 1.264 1.554 1.588zm-.097 7.126c-2.008-.033-3.368-1.118-3.368-1.911 0-.39.34-.923.745-.923.534 0 .971 1.133 2.623 1.263v-3.806c-1.457-.518-3.077-1.101-3.077-3.174 0-2.04 1.539-2.85 3.077-3.013v-.47c0-.194.195-.372.47-.372.243 0 .486.178.486.373v.437c1.101.032 2.656.372 2.656 1.166 0 .308-.227.923-.713.923-.389 0-.81-.518-1.943-.6v3.288c1.409.519 2.947 1.231 2.947 3.434 0 1.992-1.198 3.093-2.947 3.336v.55c0 .195-.243.373-.486.373-.275 0-.47-.178-.47-.372v-.502z"/>
    </g>
</svg>
