<svg xmlns="http://www.w3.org/2000/svg" xmlns:xlink="http://www.w3.org/1999/xlink" width="15" height="14" viewBox="0 0 15 14">
    <defs>
        <path id="a" d="M.002.007H14.99v13.284H.002z"/>
    </defs>
    <g fill="none" fill-rule="evenodd">
        <g>
            <mask id="b" fill="#fff">
                <use xlink:href="#a"/>
            </mask>
            <path fill="#151716" d="M13.73 6.88c-.275-.633-.718-1.21-1.29-1.702a1.071 1.071 0 0 1 1.738.835c0 .357-.177.673-.448.867zm-2.086 4.326c-1.099.82-2.572 1.272-4.15 1.272-1.576 0-3.05-.452-4.148-1.272-1.027-.768-1.594-1.767-1.594-2.813 0-1.046.567-2.044 1.594-2.812 1.099-.821 2.572-1.273 4.149-1.273s3.05.452 4.149 1.273c1.027.768 1.593 1.766 1.593 2.812 0 1.046-.566 2.045-1.593 2.813zM.812 6.013a1.071 1.071 0 0 1 1.738-.835c-.572.492-1.016 1.069-1.29 1.703a1.067 1.067 0 0 1-.448-.868zM12.061.819a.76.76 0 1 1-.002 1.52.76.76 0 0 1 .002-1.52zm2.929 5.194a1.882 1.882 0 0 0-3.214-1.329C10.723 4.005 9.378 3.573 7.9 3.505c.001-.627.282-1.211.771-1.604a2.051 2.051 0 0 1 1.736-.404l.085.018c-.001.022-.003.042-.003.064a1.571 1.571 0 1 0 .245-.842l-.15-.033a2.86 2.86 0 0 0-2.421.563 2.86 2.86 0 0 0-1.075 2.238c-1.477.068-2.821.5-3.874 1.179A1.882 1.882 0 1 0 1.01 7.68c-.046.232-.07.47-.07.713 0 2.705 2.935 4.898 6.555 4.898 3.62 0 6.555-2.193 6.555-4.898 0-.242-.024-.48-.07-.713.6-.315 1.01-.943 1.01-1.667z" mask="url(#b)"/>
        </g>
        <path fill="#C4242B" d="M5.1 6.392a.857.857 0 1 1 0 1.715.857.857 0 0 1 0-1.715M9.889 6.392a.857.857 0 1 1 0 1.715.857.857 0 0 1 0-1.715"/>
        <path fill="#151716" d="M9.526 9.332a3.268 3.268 0 0 1-2.205.854c-.919 0-1.77-.37-2.397-1.043a.406.406 0 1 0-.594.554c.77.827 1.86 1.301 2.99 1.301 1.021 0 1.999-.378 2.753-1.065a.406.406 0 1 0-.547-.6"/>
    </g>
</svg>
